# xmcd
#
# Track frame offsets:
#   150
#   43045
#   79827
#   122525
#   165320
#
# Disc length: 2947 seconds
#
# Revision: 0
# Processed by: cddbd v1.5.1PL0 Copyright (c) Steve Scherf et al.
# Submitted via: uFREEDB ActiveX Control 1.5
#
DISCID=310b8105
DTITLE=Vários - Músicas Juninas e Quadrlha Marcada
DYEAR=1900
DGENRE=Country
TTITLE0=Pout-pourri - Festa na Roça
TTITLE1=Polca Fogueteira
TTITLE2=Pout-pourri - Quadrilha brasileira
TTITLE3=Pout-pourri - diversos
TTITLE4=Diversos de quadrilhas de São João
EXTD=
EXTT0=
EXTT1=
EXTT2=
EXTT3=
EXTT4=
PLAYORDER=
